<?xml version="1.0" encoding="UTF-8"?>
<svg id="Layer_2" data-name="Layer 2" xmlns="http://www.w3.org/2000/svg" viewBox="0 0 1033.2 868.92">
  <defs>
    <style>
      .cls-1 {
        fill: #5d8966;
      }

      .cls-2 {
        fill: #5d8965;
      }

      .cls-3 {
        fill: #f09f4d;
      }

      .cls-4 {
        fill: #fdf8e7;
      }

      .cls-5 {
        fill: #9ebe91;
      }

      .cls-6 {
        fill: #fee6ca;
      }

      .cls-7 {
        fill: #e8c59d;
      }

      .cls-8 {
        fill: #e17a38;
      }
    </style>
  </defs>
  <g id="Logo">
    <g>
      <path id="Book_Cover" data-name="Book Cover" class="cls-8" d="M225.34,10.99c-1.82-5.73,4.23-2.83,6.5-2.77,28.94.75,61.4-.83,89.52,5.42,7.99,1.78,18.61,12.82,23.68,18.44s14.69,10.34,20.7,15.57c40.58,11.67,81.97,22.86,119.14,43.25,6.17,3.38,16.11,9.48,20.89,14.42,2.48,2.56,5.63,9.46,8.56,9.74,4.06.39,6.4-6.48,9.01-9.19,16.9-17.56,71.15-37.15,95.31-44.88,66.27-21.22,142.82-34.74,212.38-38.05,24.49-1.16,58.6-3.14,82.43-1.01,13,1.16,27.76,10.84,30.27,24.31,1.02,5.51.24,22.83,2.96,25.93,1.96,2.23,18.93,6.48,25.16,12.29,6.65,6.2,7.87,19.22,10.71,21.39,3.79,2.9,15.15,1.21,20.54,1.93,12.93,1.73,24.36,13.62,27.5,26,2.93,193.52.03,387.37,1.08,581.01.12,21.54,2.35,43.58,1.17,65.26-1.77,32.25-9.63,41.67-42.27,43.34l-386.38-.03-6.73,1.3c-12.83,24.69-40.79,40.51-68.22,43.62-29.73,3.37-66.73-6.68-84.88-31.75-4.71-6.51-5.06-13.07-13.67-14.16-6.59-.84-12.04.96-18.05,1.03-124.5,1.5-249.1-1.26-373.6,0-22.58-1.57-36.5-11.24-39.06-34.78L.51,135.26c3.58-12.84,14.18-25.7,27.96-27.69,6.31-.91,17.5,2.49,21.05-3.57,4.91-8.4,2.66-14.68,13.14-22.17,6.11-4.37,21.23-5.16,22.5-6.4,1.97-1.93,2.4-24.09,4.24-30.01,7.35-23.7,27.26-22.17,47.06-22.41,18.97-.22,38.99-.75,57.88-.09,4.48.16,20.24,2.94,22.94,1.65.49-.23,2.16-1.97,4.82.76l3.24-14.36Z"/>
      <path id="Book_Inner_Cover" data-name="Book Inner Cover" class="cls-7" d="M979.96,110.63v644.33c0,15.24-12.35,27.6-27.59,27.61-74.49.03-274.32.1-277.89-.05-40.05-1.72-81.34,1.37-121.5.03,1.07,10.14-1.91,25.36-10.17,32.1-25.19,20.54-73.31,15.45-79.44-21.13-.49-2.93-.27-5.88-.28-8.82H64.78c-15.25,0-27.61-12.36-27.61-27.61V112.24c0-8.78,6.26-22.29,13.87-27.86,6.32-4.63,21.98-5.81,23.08-6.88,2.81-2.76,1.1-11.48,1.59-15.53,3.1-25.54,14.21-36.4,40.07-38.05,22.94-1.46,51.7.09,75,1.07,5,.21,10.71,1.94,15.82,2.08,8.13-6.31,21.29-5.53,24.22-8.61,2.49-2.62-15.34-12.9,3.9-11.98,26.67,1.28,84.35,6.44,105.92,20.12,12.65,8.02,10.56,19.65,17.64,23.51,39.52,11.3,80.21,22.13,116.44,41.93,12.61,6.89,23.2,14.4,31.85,26,1.5.26,9.32-9.56,11.65-11.66,23.2-20.8,77.41-38.26,107.77-47.39,49.65-14.94,100.85-23.94,152.26-30.73l67.36-4.34c27.94,3.47,88.18-13.33,94.49,27.59.97,6.25-1.08,21.14,4.85,24.04,7.95,3.89,13.76,3.59,21.66,10.45,9.39,8.15,7.58,15,13.35,24.63Z"/>
      <path id="Pages" class="cls-6" d="M228.53,11.05c.99-3.2,1.33-2.9,3.9-2.82,26.85.84,101.58-2.5,113.3,20.31,3.91,7.61,10.62,13.14,19.97,19.63,31.44,9.82,63.6,18.14,93.78,31.44,13.53,5.96,32.15,14.63,43.17,24.26,2.48,2.17,10.79,12.37,12.29,12.36,3.83-.96,5.59-5.65,8.14-7.96,22.08-20.01,62.29-34.8,90.64-44.21,73.31-24.33,152.47-37.68,229.75-41.03,21.22-.92,49.91-2.76,70.54-.89,20.02,1.82,31.72,13.78,33.83,33.59.49,4.6-1.15,12.84,1.67,16.52,1.25,1.64,17.16,7.11,21.18,9.86,10.87,7.43,12.45,18.73,16.83,30.26l-.61,602.09c-8.67,7.07-16.12,14.63-27.94,15.94-38.81,1.17-158.47,3.42-178.61,5.48-64.1,6.54-130.38,18.16-192.91,36.12-4.13,1.19-21.08,6.62-23.81,8.58-.93.67-1.56,1.16-1.63,1.3-1.39,2.85-.1,7.79-.59,11.18-1.96,13.34-11.82,21.52-23.24,27.05-12.74,6.17-28.42,6.28-42.22,1.08-13.98-5.27-23.56-17.46-25.37-32.53-.22-1.84.86-5.37.55-5.77-.7-.88-18.83-7.89-30.87-10.89-27.61-6.88-54.68-14.27-82.56-20.19-33.21-7.05-66.94-12.16-100.72-15.94-19.36-2.16-38.4-3.45-57.72-5.42-37.45-3.82-84.26,4.84-120.91-.03-14.33-1.91-23.57-11.72-32.52-22.07l-.16-599.07c4.84-12.58,8.94-25.97,23.47-30.05,3.91-1.1,8.96-.86,12.11-1.8,6.1-1.83,3.37-15.38,4.05-20.56,2.76-20.86,16.31-32.43,36.79-33.85,25.75-1.78,58.55-.2,84.58,1.12,3.58.18,7.13,3.06,10.1.5.57-.49,2.22-2.77,2.22-3.18,0-3.51,8.79-8.08,9.52-10.42Z"/>
      <path id="Page_Left" data-name="Page Left" class="cls-5" d="M512.26,790.04c.17-2.14-4.34-4.05-6.09-5.15-100.36-63.05-219.49-96.65-337.88-100.81-34.03-1.2-78.79,9-84.09-37.89V59.79c.62-15.46,9.06-35.27,26.33-37.87,18.62-2.8,38.04-.4,56.6-.02,14.09.28,29.03-1.08,42.7.4,3.11.34,6.17-.88,8.18-3.29,1.89-2.27,3.35-4.72,4.23-7.35,1.54-4.61,5.22-8.28,9.87-9.67,1.28-.38,2.74-.63,4.67-.52,27.52,1.64,68.79,5.76,94.9,13.17,5.34,1.52,14.09,9.01,17.01,12.97,4.08,5.53,10.74,15.06,16.66,18.63,31.11,8.78,62.88,17.66,92.54,30.51,13.62,5.9,35.71,17.89,47.83,27.06,4.28,3.23,4.92,4.99,10.88,10.71l-.07,675.51h-4.28Z"/>
      <path id="Page_Right" data-name="Page Right" class="cls-3" d="M951.2,70.03v584.14c-4.01,17.06-15.81,29.64-34,31.06-26.15,2.05-53.75.24-79.98,2.68-97.4,9.09-213.39,33.93-297.61,85.6-7.13,4.37-14.65,10.76-20.59,16.52h-2.16l-.26-674.75c2.33-6.75,18.99-18.23,25.47-21.9,18.23-10.35,43.42-20.3,63.39-27.1,95.67-32.6,198.72-44.14,299.79-44.46,30.7-.1,47.53,14.11,44.83,45.62l1.13,2.59Z"/>
      <path id="Leaf_Shadow" data-name="Leaf Shadow" d="M441.19,695.89c1.71-13.48,14.9-46.7,21.54-59.16,1.19-2.24,11.76-17.1,11.52-18.21-4.89-5.51-9.6-13.86-12.54-20.67-31.16-72.32-22.87-157.24,22.22-221.07,2.12-3,7.36-7.65,8.62-10.61,1.04-2.44,4.45-6.74,6.87-9.17,7.87-7.89,20.68-21.3,30.42-29.42,78.32-65.29,186.64-88.67,286.83-78.55,3.51.35,12.9,1.27,15.46,2.72,1.34.76,2.8,5.67,3.14,7.48,1.99,10.4,2.72,23.44,3.36,34.11,5.82,97.08-6.54,175.1-65.22,253.45-65.34,87.25-156.27,115.22-262.27,94.07l-23.93-4.77c-7.71,12.65-12.61,25.89-17.39,39.8-.63,1.83-2.15,3.17-2.67,4.82-1.9,6.08-3.79,22.48-6.69,26.44-5.31,7.26-16.4,2.45-19.26-4.84.18-2.08-.26-4.39,0-6.41Z"/>
      <path id="Leaf" class="cls-2" d="M454.37,685.86c1.71-13.48,14.9-46.7,21.54-59.16,1.19-2.24,11.76-17.1,11.52-18.21-4.89-5.51-9.6-13.86-12.54-20.67-31.16-72.32-22.87-157.24,22.22-221.07,2.12-3,7.36-7.65,8.62-10.61,1.04-2.44,4.45-6.74,6.87-9.17,7.87-7.89,20.68-21.3,30.42-29.42,78.32-65.29,186.64-88.67,286.83-78.55,3.51.35,12.9,1.27,15.46,2.72,1.34.76,2.8,5.67,3.14,7.48,1.99,10.4,2.72,23.44,3.36,34.11,5.82,97.08-6.54,175.1-65.22,253.45-65.34,87.25-156.27,115.22-262.27,94.07l-23.93-4.77c-7.71,12.65-12.61,25.89-17.39,39.8-.63,1.83-2.15,3.17-2.67,4.82-1.9,6.08-3.79,22.48-6.69,26.44-5.31,7.26-16.4,2.45-19.26-4.84.18-2.08-.26-4.39,0-6.41Z"/>
      <path id="Leaf_Vein" data-name="Leaf Vein" class="cls-4" d="M453.81,687.53c0-.6.18-1.16.32-1.73,2.39-9.35,5.29-21.72,10.31-32.9,8.69-19.33,21.84-44.9,34.27-61.94,21.35-29.26,47.72-55.09,72.73-81.14,1.03-1.08,1.53-2.55,1.38-4.03-2.98-28.23-4.96-56.61-7.9-84.86-1.94-18.72-6.34-39.38-7.45-57.76-.53-8.79-.19-18.1,11.22-17.73,7.58.25,10.58,4.9,11.8,11.8l13.3,124.1c1.99.27,3.15-.02,4.86-1.02,3.94-2.31,18.03-18,22.4-22.49,4.71-4.84,9.23-10.09,13.9-14.96,10.09-10.5,19.96-21.26,30.6-31.21,1.11-1.03,1.68-2.5,1.56-4.01-.97-12.98-.83-26.18-1.75-39.11-1.4-19.53-5.65-40.65-6.45-59.85-.29-7.04-1.43-14.48,6.63-16.98,4.18-1.3,10.37-1.15,13.67,2.01,3.32,3.19,4.73,23,5.39,28.83,2.07,18.33,3.7,37.46,4.23,55.55.06,1.98,1.2,3.91,1.12,5.93l10.17-8.52c17.08-13.81,31.85-36.56,48.57-49.76,5.92-4.68,10-6.84,16.56-1.59,5.45,4.37,6.34,10.37,2.07,15.96l-52.67,52.36c-3.04,3.02-1.21,8.3,3.06,8.67.16.01.32.03.48.04,19.51,1.13,48.2-3.03,66.04.21,13.81,2.51,14.54,23.86-.92,24.24-14.48.35-30.2-1.44-44.72-2.08l-52.08.26c-1.72,0-3.31.89-4.25,2.33-1.14,1.76-2.45,3.62-3.67,4.82-18.26,18-38.35,37.76-55.46,56.77-1.28,1.42-8.3,9.03-8.55,9.62s.42,2.97.67,3.12c1.02.64,12.55-.05,15.36.11,31.63,1.79,63.52,1.41,95.15,3.15,3.61.2,11.67.68,14.69,1.34,8.17,1.79,11.3,14.88,5.51,21.1-4.31,4.63-18.65,1.36-24.53,1.14-34.88-1.32-69.87-2.47-104.66-3.26-8.28-.19-16.61.43-24.87-.21-1.99-.16-3.81.83-4.87,2.52-2.39,3.8-6.13,5.59-9.34,8.94-22.47,23.42-45.89,49.74-65.59,75.51-12.82,16.76-20.31,29.78-27.5,50.31-3.4,9.71-5.91,24.74-9.71,33.31-1.06,2.39-3.65,7.62-9.67,6.96-2.12-.23-7.27-2.84-7.6-3.08-2.28-1.67-3.14-3.21-3.55-4.34-.2-.55-.28-1.11-.28-1.7v-4.74Z"/>
      <path id="Ribbon_Shadow" data-name="Ribbon Shadow" d="M349.08,74.4v311.12c0,5.97-7.43,8.96-11.78,4.74l-60.8-59.06c-2.7-2.62-7.07-2.62-9.76,0l-58.94,57.25c-4.35,4.22-11.78,1.23-11.78-4.75V33.54c.38-13.71,5.52-11.82,12.26-11.72,1.62.02,3.37.06,5.23.11,1.45-.6,4.15-1.9,5.21-3.58,1.03-1.65,2.51,1.7,3.3,3.86,28.54,1.13,73.19,4.68,96.61,12.94,35.85,12.65,30.45,39.25,30.45,39.25Z"/>
      <path id="Ribbon" class="cls-1" d="M217.35,11.43v341.52c0,5.83,7.04,8.74,11.16,4.62l55.84-55.84c2.55-2.55,6.69-2.55,9.25,0l57.61,57.61c4.12,4.12,11.16,1.2,11.16-4.62V51.28s5.11-25.95-28.86-38.28C307.3,3.48,252.99.37,228.97,0c-6.39-.1-11.62,5.04-11.62,11.43Z"/>
    </g>
  </g>
</svg>